<svg width="200" height="64" viewBox="0 0 200 64" fill="none" xmlns="http://www.w3.org/2000/svg">
<g filter="url(#filter0_d_1314_153)">
<rect x="4" width="192" height="56" rx="11" fill="#EBEBEB" shape-rendering="crispEdges"/>
<path d="M14.888 27.624C14.888 25.992 15.264 24.528 16.016 23.232C16.784 21.936 17.816 20.928 19.112 20.208C20.424 19.472 21.856 19.104 23.408 19.104C25.184 19.104 26.76 19.544 28.136 20.424C29.528 21.288 30.536 22.52 31.16 24.12H27.872C27.44 23.24 26.84 22.584 26.072 22.152C25.304 21.72 24.416 21.504 23.408 21.504C22.304 21.504 21.32 21.752 20.456 22.248C19.592 22.744 18.912 23.456 18.416 24.384C17.936 25.312 17.696 26.392 17.696 27.624C17.696 28.856 17.936 29.936 18.416 30.864C18.912 31.792 19.592 32.512 20.456 33.024C21.32 33.52 22.304 33.768 23.408 33.768C24.416 33.768 25.304 33.552 26.072 33.12C26.84 32.688 27.44 32.032 27.872 31.152H31.16C30.536 32.752 29.528 33.984 28.136 34.848C26.76 35.712 25.184 36.144 23.408 36.144C21.84 36.144 20.408 35.784 19.112 35.064C17.816 34.328 16.784 33.312 16.016 32.016C15.264 30.72 14.888 29.256 14.888 27.624ZM48.8529 33.792H54.4929V36H46.1169V19.32H48.8529V33.792ZM58.6289 29.328C58.6289 28 58.9009 26.824 59.4449 25.8C60.0049 24.776 60.7569 23.984 61.7009 23.424C62.6609 22.848 63.7169 22.56 64.8689 22.56C65.9089 22.56 66.8129 22.768 67.5809 23.184C68.3649 23.584 68.9889 24.088 69.4529 24.696V22.776H72.2129V36H69.4529V34.032C68.9889 34.656 68.3569 35.176 67.5569 35.592C66.7569 36.008 65.8449 36.216 64.8209 36.216C63.6849 36.216 62.6449 35.928 61.7009 35.352C60.7569 34.76 60.0049 33.944 59.4449 32.904C58.9009 31.848 58.6289 30.656 58.6289 29.328ZM69.4529 29.376C69.4529 28.464 69.2609 27.672 68.8769 27C68.5089 26.328 68.0209 25.816 67.4129 25.464C66.8049 25.112 66.1489 24.936 65.4449 24.936C64.7409 24.936 64.0849 25.112 63.4769 25.464C62.8689 25.8 62.3729 26.304 61.9889 26.976C61.6209 27.632 61.4369 28.416 61.4369 29.328C61.4369 30.24 61.6209 31.04 61.9889 31.728C62.3729 32.416 62.8689 32.944 63.4769 33.312C64.1009 33.664 64.7569 33.84 65.4449 33.84C66.1489 33.84 66.8049 33.664 67.4129 33.312C68.0209 32.96 68.5089 32.448 68.8769 31.776C69.2609 31.088 69.4529 30.288 69.4529 29.376ZM85.2386 22.56C86.2786 22.56 87.2066 22.776 88.0226 23.208C88.8546 23.64 89.5026 24.28 89.9666 25.128C90.4306 25.976 90.6626 27 90.6626 28.2V36H87.9506V28.608C87.9506 27.424 87.6546 26.52 87.0626 25.896C86.4706 25.256 85.6626 24.936 84.6386 24.936C83.6146 24.936 82.7986 25.256 82.1906 25.896C81.5986 26.52 81.3026 27.424 81.3026 28.608V36H78.5666V22.776H81.3026V24.288C81.7506 23.744 82.3186 23.32 83.0066 23.016C83.7106 22.712 84.4546 22.56 85.2386 22.56ZM102.241 22.56C103.265 22.56 104.169 22.768 104.953 23.184C105.753 23.584 106.377 24.088 106.825 24.696V22.776H109.585V36.216C109.585 37.432 109.329 38.512 108.817 39.456C108.305 40.416 107.561 41.168 106.585 41.712C105.625 42.256 104.473 42.528 103.129 42.528C101.337 42.528 99.8485 42.104 98.6645 41.256C97.4805 40.424 96.8085 39.288 96.6485 37.848H99.3605C99.5685 38.536 100.009 39.088 100.681 39.504C101.369 39.936 102.185 40.152 103.129 40.152C104.233 40.152 105.121 39.816 105.793 39.144C106.481 38.472 106.825 37.496 106.825 36.216V34.008C106.361 34.632 105.729 35.16 104.929 35.592C104.145 36.008 103.249 36.216 102.241 36.216C101.089 36.216 100.033 35.928 99.0725 35.352C98.1285 34.76 97.3765 33.944 96.8165 32.904C96.2725 31.848 96.0005 30.656 96.0005 29.328C96.0005 28 96.2725 26.824 96.8165 25.8C97.3765 24.776 98.1285 23.984 99.0725 23.424C100.033 22.848 101.089 22.56 102.241 22.56ZM106.825 29.376C106.825 28.464 106.633 27.672 106.249 27C105.881 26.328 105.393 25.816 104.785 25.464C104.177 25.112 103.521 24.936 102.817 24.936C102.113 24.936 101.457 25.112 100.849 25.464C100.241 25.8 99.7445 26.304 99.3605 26.976C98.9925 27.632 98.8085 28.416 98.8085 29.328C98.8085 30.24 98.9925 31.04 99.3605 31.728C99.7445 32.416 100.241 32.944 100.849 33.312C101.473 33.664 102.129 33.84 102.817 33.84C103.521 33.84 104.177 33.664 104.785 33.312C105.393 32.96 105.881 32.448 106.249 31.776C106.633 31.088 106.825 30.288 106.825 29.376ZM127.914 22.776V36H125.178V34.44C124.746 34.984 124.178 35.416 123.474 35.736C122.786 36.04 122.05 36.192 121.266 36.192C120.226 36.192 119.29 35.976 118.458 35.544C117.642 35.112 116.994 34.472 116.514 33.624C116.05 32.776 115.818 31.752 115.818 30.552V22.776H118.53V30.144C118.53 31.328 118.826 32.24 119.418 32.88C120.01 33.504 120.818 33.816 121.842 33.816C122.866 33.816 123.674 33.504 124.266 32.88C124.874 32.24 125.178 31.328 125.178 30.144V22.776H127.914ZM133.372 29.328C133.372 28 133.644 26.824 134.188 25.8C134.748 24.776 135.5 23.984 136.444 23.424C137.404 22.848 138.46 22.56 139.612 22.56C140.652 22.56 141.556 22.768 142.324 23.184C143.108 23.584 143.732 24.088 144.196 24.696V22.776H146.956V36H144.196V34.032C143.732 34.656 143.1 35.176 142.3 35.592C141.5 36.008 140.588 36.216 139.564 36.216C138.428 36.216 137.388 35.928 136.444 35.352C135.5 34.76 134.748 33.944 134.188 32.904C133.644 31.848 133.372 30.656 133.372 29.328ZM144.196 29.376C144.196 28.464 144.004 27.672 143.62 27C143.252 26.328 142.764 25.816 142.156 25.464C141.548 25.112 140.892 24.936 140.188 24.936C139.484 24.936 138.828 25.112 138.22 25.464C137.612 25.8 137.116 26.304 136.732 26.976C136.364 27.632 136.18 28.416 136.18 29.328C136.18 30.24 136.364 31.04 136.732 31.728C137.116 32.416 137.612 32.944 138.22 33.312C138.844 33.664 139.5 33.84 140.188 33.84C140.892 33.84 141.548 33.664 142.156 33.312C142.764 32.96 143.252 32.448 143.62 31.776C144.004 31.088 144.196 30.288 144.196 29.376ZM158.638 22.56C159.662 22.56 160.566 22.768 161.35 23.184C162.15 23.584 162.774 24.088 163.222 24.696V22.776H165.982V36.216C165.982 37.432 165.726 38.512 165.214 39.456C164.702 40.416 163.958 41.168 162.982 41.712C162.022 42.256 160.87 42.528 159.526 42.528C157.734 42.528 156.246 42.104 155.062 41.256C153.878 40.424 153.206 39.288 153.046 37.848H155.758C155.966 38.536 156.406 39.088 157.078 39.504C157.766 39.936 158.582 40.152 159.526 40.152C160.63 40.152 161.518 39.816 162.19 39.144C162.878 38.472 163.222 37.496 163.222 36.216V34.008C162.758 34.632 162.126 35.16 161.326 35.592C160.542 36.008 159.646 36.216 158.638 36.216C157.486 36.216 156.43 35.928 155.47 35.352C154.526 34.76 153.774 33.944 153.214 32.904C152.67 31.848 152.398 30.656 152.398 29.328C152.398 28 152.67 26.824 153.214 25.8C153.774 24.776 154.526 23.984 155.47 23.424C156.43 22.848 157.486 22.56 158.638 22.56ZM163.222 29.376C163.222 28.464 163.03 27.672 162.646 27C162.278 26.328 161.79 25.816 161.182 25.464C160.574 25.112 159.918 24.936 159.214 24.936C158.51 24.936 157.854 25.112 157.246 25.464C156.638 25.8 156.142 26.304 155.758 26.976C155.39 27.632 155.206 28.416 155.206 29.328C155.206 30.24 155.39 31.04 155.758 31.728C156.142 32.416 156.638 32.944 157.246 33.312C157.87 33.664 158.526 33.84 159.214 33.84C159.918 33.84 160.574 33.664 161.182 33.312C161.79 32.96 162.278 32.448 162.646 31.776C163.03 31.088 163.222 30.288 163.222 29.376ZM184.455 29.064C184.455 29.56 184.423 30.008 184.359 30.408H174.255C174.335 31.464 174.727 32.312 175.431 32.952C176.135 33.592 176.999 33.912 178.023 33.912C179.495 33.912 180.535 33.296 181.143 32.064H184.095C183.695 33.28 182.967 34.28 181.911 35.064C180.871 35.832 179.575 36.216 178.023 36.216C176.759 36.216 175.623 35.936 174.615 35.376C173.623 34.8 172.839 34 172.263 32.976C171.703 31.936 171.423 30.736 171.423 29.376C171.423 28.016 171.695 26.824 172.239 25.8C172.799 24.76 173.575 23.96 174.567 23.4C175.575 22.84 176.727 22.56 178.023 22.56C179.271 22.56 180.383 22.832 181.359 23.376C182.335 23.92 183.095 24.688 183.639 25.68C184.183 26.656 184.455 27.784 184.455 29.064ZM181.599 28.2C181.583 27.192 181.223 26.384 180.519 25.776C179.815 25.168 178.943 24.864 177.903 24.864C176.959 24.864 176.151 25.168 175.479 25.776C174.807 26.368 174.407 27.176 174.279 28.2H181.599Z" fill="black"/>
</g>
<defs>
<filter id="filter0_d_1314_153" x="0" y="0" width="200" height="64" filterUnits="userSpaceOnUse" color-interpolation-filters="sRGB">
<feFlood flood-opacity="0" result="BackgroundImageFix"/>
<feColorMatrix in="SourceAlpha" type="matrix" values="0 0 0 0 0 0 0 0 0 0 0 0 0 0 0 0 0 0 127 0" result="hardAlpha"/>
<feOffset dy="4"/>
<feGaussianBlur stdDeviation="2"/>
<feComposite in2="hardAlpha" operator="out"/>
<feColorMatrix type="matrix" values="0 0 0 0 0 0 0 0 0 0 0 0 0 0 0 0 0 0 0.25 0"/>
<feBlend mode="normal" in2="BackgroundImageFix" result="effect1_dropShadow_1314_153"/>
<feBlend mode="normal" in="SourceGraphic" in2="effect1_dropShadow_1314_153" result="shape"/>
</filter>
</defs>
</svg>
