<svg width="116" height="64" viewBox="0 0 116 64" fill="none" xmlns="http://www.w3.org/2000/svg">
<g filter="url(#filter0_d_1321_74)">
<rect x="4" width="108" height="56" rx="11" fill="#EBEBEB" shape-rendering="crispEdges"/>
<path d="M25.616 19.32V21.552H18.536V26.472H24.056V28.704H18.536V36H15.8V19.32H25.616ZM32.3036 21.024C31.8076 21.024 31.3916 20.856 31.0556 20.52C30.7196 20.184 30.5516 19.768 30.5516 19.272C30.5516 18.776 30.7196 18.36 31.0556 18.024C31.3916 17.688 31.8076 17.52 32.3036 17.52C32.7836 17.52 33.1916 17.688 33.5276 18.024C33.8636 18.36 34.0316 18.776 34.0316 19.272C34.0316 19.768 33.8636 20.184 33.5276 20.52C33.1916 20.856 32.7836 21.024 32.3036 21.024ZM33.6476 22.776V36H30.9116V22.776H33.6476ZM45.3277 22.56C46.3517 22.56 47.2557 22.768 48.0397 23.184C48.8397 23.584 49.4637 24.088 49.9117 24.696V22.776H52.6717V36.216C52.6717 37.432 52.4157 38.512 51.9037 39.456C51.3917 40.416 50.6477 41.168 49.6717 41.712C48.7117 42.256 47.5597 42.528 46.2157 42.528C44.4237 42.528 42.9357 42.104 41.7517 41.256C40.5677 40.424 39.8957 39.288 39.7357 37.848H42.4477C42.6557 38.536 43.0957 39.088 43.7677 39.504C44.4557 39.936 45.2717 40.152 46.2157 40.152C47.3197 40.152 48.2077 39.816 48.8797 39.144C49.5677 38.472 49.9117 37.496 49.9117 36.216V34.008C49.4477 34.632 48.8157 35.16 48.0157 35.592C47.2317 36.008 46.3357 36.216 45.3277 36.216C44.1757 36.216 43.1197 35.928 42.1597 35.352C41.2157 34.76 40.4637 33.944 39.9037 32.904C39.3597 31.848 39.0877 30.656 39.0877 29.328C39.0877 28 39.3597 26.824 39.9037 25.8C40.4637 24.776 41.2157 23.984 42.1597 23.424C43.1197 22.848 44.1757 22.56 45.3277 22.56ZM49.9117 29.376C49.9117 28.464 49.7197 27.672 49.3357 27C48.9677 26.328 48.4797 25.816 47.8717 25.464C47.2637 25.112 46.6077 24.936 45.9037 24.936C45.1997 24.936 44.5437 25.112 43.9357 25.464C43.3277 25.8 42.8317 26.304 42.4477 26.976C42.0797 27.632 41.8957 28.416 41.8957 29.328C41.8957 30.24 42.0797 31.04 42.4477 31.728C42.8317 32.416 43.3277 32.944 43.9357 33.312C44.5597 33.664 45.2157 33.84 45.9037 33.84C46.6077 33.84 47.2637 33.664 47.8717 33.312C48.4797 32.96 48.9677 32.448 49.3357 31.776C49.7197 31.088 49.9117 30.288 49.9117 29.376ZM75.0333 22.56C76.0733 22.56 77.0013 22.776 77.8173 23.208C78.6493 23.64 79.2973 24.28 79.7613 25.128C80.2413 25.976 80.4813 27 80.4813 28.2V36H77.7693V28.608C77.7693 27.424 77.4733 26.52 76.8813 25.896C76.2893 25.256 75.4813 24.936 74.4573 24.936C73.4333 24.936 72.6173 25.256 72.0093 25.896C71.4173 26.52 71.1213 27.424 71.1213 28.608V36H68.4093V28.608C68.4093 27.424 68.1133 26.52 67.5213 25.896C66.9293 25.256 66.1213 24.936 65.0973 24.936C64.0733 24.936 63.2573 25.256 62.6493 25.896C62.0573 26.52 61.7613 27.424 61.7613 28.608V36H59.0253V22.776H61.7613V24.288C62.2093 23.744 62.7773 23.32 63.4653 23.016C64.1533 22.712 64.8893 22.56 65.6733 22.56C66.7293 22.56 67.6733 22.784 68.5053 23.232C69.3373 23.68 69.9773 24.328 70.4253 25.176C70.8253 24.376 71.4493 23.744 72.2973 23.28C73.1453 22.8 74.0573 22.56 75.0333 22.56ZM85.8108 29.328C85.8108 28 86.0828 26.824 86.6268 25.8C87.1868 24.776 87.9388 23.984 88.8828 23.424C89.8428 22.848 90.8988 22.56 92.0508 22.56C93.0908 22.56 93.9948 22.768 94.7628 23.184C95.5468 23.584 96.1708 24.088 96.6348 24.696V22.776H99.3948V36H96.6348V34.032C96.1708 34.656 95.5388 35.176 94.7388 35.592C93.9388 36.008 93.0268 36.216 92.0028 36.216C90.8668 36.216 89.8268 35.928 88.8828 35.352C87.9388 34.76 87.1868 33.944 86.6268 32.904C86.0828 31.848 85.8108 30.656 85.8108 29.328ZM96.6348 29.376C96.6348 28.464 96.4428 27.672 96.0588 27C95.6908 26.328 95.2028 25.816 94.5948 25.464C93.9868 25.112 93.3308 24.936 92.6268 24.936C91.9228 24.936 91.2668 25.112 90.6588 25.464C90.0508 25.8 89.5548 26.304 89.1708 26.976C88.8028 27.632 88.6188 28.416 88.6188 29.328C88.6188 30.24 88.8028 31.04 89.1708 31.728C89.5548 32.416 90.0508 32.944 90.6588 33.312C91.2828 33.664 91.9388 33.84 92.6268 33.84C93.3308 33.84 93.9868 33.664 94.5948 33.312C95.2028 32.96 95.6908 32.448 96.0588 31.776C96.4428 31.088 96.6348 30.288 96.6348 29.376Z" fill="black"/>
</g>
<defs>
<filter id="filter0_d_1321_74" x="0" y="0" width="116" height="64" filterUnits="userSpaceOnUse" color-interpolation-filters="sRGB">
<feFlood flood-opacity="0" result="BackgroundImageFix"/>
<feColorMatrix in="SourceAlpha" type="matrix" values="0 0 0 0 0 0 0 0 0 0 0 0 0 0 0 0 0 0 127 0" result="hardAlpha"/>
<feOffset dy="4"/>
<feGaussianBlur stdDeviation="2"/>
<feComposite in2="hardAlpha" operator="out"/>
<feColorMatrix type="matrix" values="0 0 0 0 0 0 0 0 0 0 0 0 0 0 0 0 0 0 0.25 0"/>
<feBlend mode="normal" in2="BackgroundImageFix" result="effect1_dropShadow_1321_74"/>
<feBlend mode="normal" in="SourceGraphic" in2="effect1_dropShadow_1321_74" result="shape"/>
</filter>
</defs>
</svg>
