<svg width="126" height="64" viewBox="0 0 126 64" fill="none" xmlns="http://www.w3.org/2000/svg">
<g filter="url(#filter0_d_1314_149)">
<rect x="4" width="118" height="56" rx="11" fill="#EBEBEB" shape-rendering="crispEdges"/>
<path d="M27.464 24.288C27.464 25.136 27.264 25.936 26.864 26.688C26.464 27.44 25.824 28.056 24.944 28.536C24.064 29 22.936 29.232 21.56 29.232H18.536V36H15.8V19.32H21.56C22.84 19.32 23.92 19.544 24.8 19.992C25.696 20.424 26.36 21.016 26.792 21.768C27.24 22.52 27.464 23.36 27.464 24.288ZM21.56 27C22.6 27 23.376 26.768 23.888 26.304C24.4 25.824 24.656 25.152 24.656 24.288C24.656 22.464 23.624 21.552 21.56 21.552H18.536V27H21.56ZM44.7374 22.776L36.6254 42.216H33.7934L36.4814 35.784L31.2734 22.776H34.3214L38.0414 32.856L41.9054 22.776H44.7374ZM52.7542 25.008V32.328C52.7542 32.824 52.8662 33.184 53.0902 33.408C53.3302 33.616 53.7302 33.72 54.2902 33.72H55.9702V36H53.8102C52.5782 36 51.6342 35.712 50.9782 35.136C50.3222 34.56 49.9942 33.624 49.9942 32.328V25.008H48.4342V22.776H49.9942V19.488H52.7542V22.776H55.9702V25.008H52.7542ZM68.0919 22.56C69.0999 22.56 69.9959 22.776 70.7799 23.208C71.5799 23.64 72.2039 24.28 72.6519 25.128C73.1159 25.976 73.3479 27 73.3479 28.2V36H70.6359V28.608C70.6359 27.424 70.3399 26.52 69.7479 25.896C69.1559 25.256 68.3479 24.936 67.3239 24.936C66.2999 24.936 65.4839 25.256 64.8759 25.896C64.2839 26.52 63.9879 27.424 63.9879 28.608V36H61.2519V18.24H63.9879V24.312C64.4519 23.752 65.0359 23.32 65.7399 23.016C66.4599 22.712 67.2439 22.56 68.0919 22.56ZM85.3338 36.216C84.0858 36.216 82.9578 35.936 81.9498 35.376C80.9418 34.8 80.1498 34 79.5738 32.976C78.9978 31.936 78.7098 30.736 78.7098 29.376C78.7098 28.032 79.0058 26.84 79.5978 25.8C80.1898 24.76 80.9978 23.96 82.0218 23.4C83.0458 22.84 84.1898 22.56 85.4538 22.56C86.7178 22.56 87.8618 22.84 88.8858 23.4C89.9098 23.96 90.7178 24.76 91.3098 25.8C91.9018 26.84 92.1978 28.032 92.1978 29.376C92.1978 30.72 91.8938 31.912 91.2858 32.952C90.6778 33.992 89.8458 34.8 88.7898 35.376C87.7498 35.936 86.5978 36.216 85.3338 36.216ZM85.3338 33.84C86.0378 33.84 86.6938 33.672 87.3018 33.336C87.9258 33 88.4298 32.496 88.8138 31.824C89.1978 31.152 89.3898 30.336 89.3898 29.376C89.3898 28.416 89.2058 27.608 88.8378 26.952C88.4698 26.28 87.9818 25.776 87.3738 25.44C86.7658 25.104 86.1098 24.936 85.4058 24.936C84.7018 24.936 84.0458 25.104 83.4378 25.44C82.8458 25.776 82.3738 26.28 82.0218 26.952C81.6698 27.608 81.4938 28.416 81.4938 29.376C81.4938 30.8 81.8538 31.904 82.5738 32.688C83.3098 33.456 84.2298 33.84 85.3338 33.84ZM104.335 22.56C105.375 22.56 106.303 22.776 107.119 23.208C107.951 23.64 108.599 24.28 109.063 25.128C109.527 25.976 109.759 27 109.759 28.2V36H107.047V28.608C107.047 27.424 106.751 26.52 106.159 25.896C105.567 25.256 104.759 24.936 103.735 24.936C102.711 24.936 101.895 25.256 101.287 25.896C100.695 26.52 100.399 27.424 100.399 28.608V36H97.6625V22.776H100.399V24.288C100.847 23.744 101.415 23.32 102.103 23.016C102.807 22.712 103.551 22.56 104.335 22.56Z" fill="black"/>
</g>
<defs>
<filter id="filter0_d_1314_149" x="0" y="0" width="126" height="64" filterUnits="userSpaceOnUse" color-interpolation-filters="sRGB">
<feFlood flood-opacity="0" result="BackgroundImageFix"/>
<feColorMatrix in="SourceAlpha" type="matrix" values="0 0 0 0 0 0 0 0 0 0 0 0 0 0 0 0 0 0 127 0" result="hardAlpha"/>
<feOffset dy="4"/>
<feGaussianBlur stdDeviation="2"/>
<feComposite in2="hardAlpha" operator="out"/>
<feColorMatrix type="matrix" values="0 0 0 0 0 0 0 0 0 0 0 0 0 0 0 0 0 0 0.25 0"/>
<feBlend mode="normal" in2="BackgroundImageFix" result="effect1_dropShadow_1314_149"/>
<feBlend mode="normal" in="SourceGraphic" in2="effect1_dropShadow_1314_149" result="shape"/>
</filter>
</defs>
</svg>
