<svg width="78" height="64" viewBox="0 0 78 64" fill="none" xmlns="http://www.w3.org/2000/svg">
<g filter="url(#filter0_d_1314_157)">
<rect x="4" width="70" height="56" rx="11" fill="#EBEBEB" shape-rendering="crispEdges"/>
<path d="M21.296 36.168C20.176 36.168 19.168 35.976 18.272 35.592C17.376 35.192 16.672 34.632 16.16 33.912C15.648 33.192 15.392 32.352 15.392 31.392H18.32C18.384 32.112 18.664 32.704 19.16 33.168C19.672 33.632 20.384 33.864 21.296 33.864C22.24 33.864 22.976 33.64 23.504 33.192C24.032 32.728 24.296 32.136 24.296 31.416C24.296 30.856 24.128 30.4 23.792 30.048C23.472 29.696 23.064 29.424 22.568 29.232C22.088 29.04 21.416 28.832 20.552 28.608C19.464 28.32 18.576 28.032 17.888 27.744C17.216 27.44 16.64 26.976 16.16 26.352C15.68 25.728 15.44 24.896 15.44 23.856C15.44 22.896 15.68 22.056 16.16 21.336C16.64 20.616 17.312 20.064 18.176 19.68C19.04 19.296 20.04 19.104 21.176 19.104C22.792 19.104 24.112 19.512 25.136 20.328C26.176 21.128 26.752 22.232 26.864 23.64H23.84C23.792 23.032 23.504 22.512 22.976 22.08C22.448 21.648 21.752 21.432 20.888 21.432C20.104 21.432 19.464 21.632 18.968 22.032C18.472 22.432 18.224 23.008 18.224 23.76C18.224 24.272 18.376 24.696 18.68 25.032C19 25.352 19.4 25.608 19.88 25.8C20.36 25.992 21.016 26.2 21.848 26.424C22.952 26.728 23.848 27.032 24.536 27.336C25.24 27.64 25.832 28.112 26.312 28.752C26.808 29.376 27.056 30.216 27.056 31.272C27.056 32.12 26.824 32.92 26.36 33.672C25.912 34.424 25.248 35.032 24.368 35.496C23.504 35.944 22.48 36.168 21.296 36.168ZM45.9564 39.024L43.0284 35.856C42.3084 36.064 41.5164 36.168 40.6524 36.168C39.1004 36.168 37.6684 35.808 36.3564 35.088C35.0604 34.352 34.0284 33.336 33.2604 32.04C32.5084 30.728 32.1324 29.256 32.1324 27.624C32.1324 25.992 32.5084 24.528 33.2604 23.232C34.0284 21.936 35.0604 20.928 36.3564 20.208C37.6684 19.472 39.1004 19.104 40.6524 19.104C42.2204 19.104 43.6524 19.472 44.9484 20.208C46.2604 20.928 47.2924 21.936 48.0444 23.232C48.7964 24.528 49.1724 25.992 49.1724 27.624C49.1724 29.16 48.8364 30.552 48.1644 31.8C47.5084 33.032 46.5964 34.024 45.4284 34.776L49.4364 39.024H45.9564ZM34.9404 27.624C34.9404 28.856 35.1804 29.944 35.6604 30.888C36.1564 31.816 36.8364 32.536 37.7004 33.048C38.5644 33.544 39.5484 33.792 40.6524 33.792C41.7564 33.792 42.7404 33.544 43.6044 33.048C44.4684 32.536 45.1404 31.816 45.6204 30.888C46.1164 29.944 46.3644 28.856 46.3644 27.624C46.3644 26.392 46.1164 25.312 45.6204 24.384C45.1404 23.456 44.4684 22.744 43.6044 22.248C42.7404 21.752 41.7564 21.504 40.6524 21.504C39.5484 21.504 38.5644 21.752 37.7004 22.248C36.8364 22.744 36.1564 23.456 35.6604 24.384C35.1804 25.312 34.9404 26.392 34.9404 27.624ZM57.431 33.792H63.071V36H54.695V19.32H57.431V33.792Z" fill="black"/>
</g>
<defs>
<filter id="filter0_d_1314_157" x="0" y="0" width="78" height="64" filterUnits="userSpaceOnUse" color-interpolation-filters="sRGB">
<feFlood flood-opacity="0" result="BackgroundImageFix"/>
<feColorMatrix in="SourceAlpha" type="matrix" values="0 0 0 0 0 0 0 0 0 0 0 0 0 0 0 0 0 0 127 0" result="hardAlpha"/>
<feOffset dy="4"/>
<feGaussianBlur stdDeviation="2"/>
<feComposite in2="hardAlpha" operator="out"/>
<feColorMatrix type="matrix" values="0 0 0 0 0 0 0 0 0 0 0 0 0 0 0 0 0 0 0.25 0"/>
<feBlend mode="normal" in2="BackgroundImageFix" result="effect1_dropShadow_1314_157"/>
<feBlend mode="normal" in="SourceGraphic" in2="effect1_dropShadow_1314_157" result="shape"/>
</filter>
</defs>
</svg>
